<svg width="502" height="759" viewBox="0 0 502 759" fill="none" xmlns="http://www.w3.org/2000/svg">
<circle cx="302.407" cy="654.255" r="1.14984" fill="#D9D9D9"/>
<path d="M459.937 259.869C459.937 386.877 356.977 489.837 229.969 489.837C102.961 489.837 0.00012207 386.877 0.00012207 259.869C0.00012207 132.861 102.961 29.9004 229.969 29.9004C356.977 29.9004 459.937 132.861 459.937 259.869ZM108.641 259.869C108.641 326.876 162.961 381.196 229.969 381.196C296.976 381.196 351.296 326.876 351.296 259.869C351.296 192.862 296.976 138.542 229.969 138.542C162.961 138.542 108.641 192.862 108.641 259.869Z" fill="white"/>
<path d="M459.937 528.931C459.937 589.923 435.708 648.416 392.581 691.544C349.453 734.671 290.96 758.9 229.968 758.9C168.977 758.9 110.484 734.671 67.3562 691.544C24.2288 648.416 3.9727e-05 589.923 3.05176e-05 528.931L229.968 528.931H459.937Z" fill="white"/>
<path d="M458.896 12.8613C485.653 13.121 509.212 49.8594 471.46 58.5801C405.697 73.7796 354.399 113.108 314.437 174.539C309.244 184.862 305.318 195.122 307.281 205.445C310.067 215.515 310.637 225.711 309.307 234.514C306.711 250.347 298.858 267.573 285.368 282.266C271.942 296.959 255.666 306.205 240.15 310.131C224.634 313.995 209.118 312.855 198.731 303.355C188.282 293.792 186.952 279.163 190.561 264.28C194.171 249.397 203.228 233.374 216.527 218.871C229.827 204.305 244.963 193.855 259.466 188.916C264.659 187.142 269.915 186.002 274.919 185.749C283.532 182.266 289.865 174.919 295.565 166.433C330.777 97.9721 383.088 53.2223 444.076 16.8829C448.902 14.4826 454.298 12.8613 458.896 12.8613ZM297.274 212.665C281.695 251.803 250.853 282.836 216.464 299.745C221.784 300.695 228.433 300.442 235.653 298.669C248.953 295.312 263.836 287.079 276.059 273.779C288.281 260.417 295.501 244.394 297.718 230.778C298.351 224.634 298.541 218.048 297.274 212.665Z" fill="white"/>
</svg>
